<svg id="Icon_copia" data-name="Icon copia" xmlns="http://www.w3.org/2000/svg" width="1080" height="707" viewBox="0 0 1080 707">
  <defs>
    <style>
      .cls-1 {
        fill: #ffbcab;
      }

      .cls-1, .cls-2 {
        fill-rule: evenodd;
      }

      .cls-2 {
        fill: #ffa5b5;
      }
    </style>
  </defs>
  <path id="Elipse_2_copia_2" data-name="Elipse 2 copia 2" class="cls-1" d="M374,412.5c13.255,0,24,15.222,24,34s-10.745,34-24,34-24-15.222-24-34S360.745,412.5,374,412.5Zm332.344,0c13.255,0,24,15.222,24,34s-10.745,34-24,34-24-15.222-24-34S693.089,412.5,706.344,412.5ZM540,547.5c-62.737-.186-94-14.3-94,1,0,6.914,29.932,35.122,94,35,64.866-.123,93.935-28.108,94-35C634.144,533.194,603.162,547.687,540,547.5Zm0-298c-144.1.481-271.221,135.342-273,223-1.93,95.1,118.153,157.888,273,158,149.037,0.108,273.973-55.066,272-158.031C810.207,378.883,684.021,249.019,540,249.5Z"/>
  <path id="Forma_4_copia" data-name="Forma 4 copia" class="cls-2" d="M146,77.5l207,211s-104.451,9.01-162-57C129.9,161.417,146,77.5,146,77.5Zm-91,167,223,111s-69.363,39.4-141,3C59.993,319.37,55,244.5,55,244.5Zm1,174,191,18s-44.785,43.4-97,42C90.333,476.9,56,418.5,56,418.5Zm878-341-207,211s104.451,9.01,162-57C950.1,161.417,934,77.5,934,77.5Zm91,167-223,111s69.363,39.4,141,3C1020.01,319.37,1025,244.5,1025,244.5Zm-1,174-191,18s44.785,43.4,97,42C989.667,476.9,1024,418.5,1024,418.5Z"/>
</svg>
