<svg id="Icon_copia" data-name="Icon copia" xmlns="http://www.w3.org/2000/svg" width="1080" height="1080" viewBox="0 0 1080 1080">
  <defs>
    <style>
      .cls-1 {
        fill: #ffbcab;
      }

      .cls-1, .cls-2 {
        fill-rule: evenodd;
      }

      .cls-2 {
        fill: #ffa5b5;
      }
    </style>
  </defs>
  <path id="Elipse_2_copia_2" data-name="Elipse 2 copia 2" class="cls-1" d="M374,599c13.255,0,24,15.222,24,34s-10.745,34-24,34-24-15.222-24-34S360.745,599,374,599Zm332.333,0c13.255,0,24,15.222,24,34s-10.745,34-24,34-24-15.222-24-34S693.079,599,706.333,599ZM540,734c-62.737-.186-94-14.3-94,1,0,6.914,29.932,35.122,94,35,64.867-.123,93.935-28.108,94-35C634.144,719.694,603.162,734.187,540,734Zm0-298c-144.1.481-271.221,135.342-273,223-1.93,95.1,118.153,157.888,273,158,149.037,0.108,273.973-55.066,272-158.031C810.207,565.383,684.021,435.519,540,436Z"/>
  <path id="Forma_4_copia" data-name="Forma 4 copia" class="cls-2" d="M146,264L353,475s-104.451,9.01-162-57C129.9,347.917,146,264,146,264ZM55,431L278,542s-69.363,39.4-141,3C59.993,505.87,55,431,55,431Zm1,174,191,18s-44.785,43.4-97,42C90.333,663.4,56,605,56,605ZM934,264L727,475s104.451,9.01,162-57C950.1,347.917,934,264,934,264Zm91,167L802,542s69.363,39.4,141,3C1020.01,505.87,1025,431,1025,431Zm-1,174L833,623s44.785,43.4,97,42C989.667,663.4,1024,605,1024,605Z"/>
</svg>
