<svg id="Icon_copia" data-name="Icon copia" xmlns="http://www.w3.org/2000/svg" width="1080" height="594" viewBox="0 0 1080 594">
  <defs>
    <style>
      .cls-1 {
        fill: #ffbcab;
      }

      .cls-1, .cls-2 {
        fill-rule: evenodd;
      }

      .cls-2 {
        fill: #ffa5b5;
      }
    </style>
  </defs>
  <path id="Elipse_2_copia_2" data-name="Elipse 2 copia 2" class="cls-1" d="M374,355.5c13.255,0,24,15.222,24,34s-10.745,34-24,34-24-15.222-24-34S360.745,355.5,374,355.5Zm332.344,0c13.255,0,24,15.222,24,34s-10.745,34-24,34-24-15.222-24-34S693.089,355.5,706.344,355.5ZM540,490.5c-62.737-.186-94-14.3-94,1,0,6.914,29.932,35.122,94,35,64.866-.123,93.935-28.108,94-35C634.144,476.194,603.162,490.687,540,490.5Zm0-298c-144.1.481-271.221,135.342-273,223-1.93,95.1,118.153,157.888,273,158,149.037,0.108,273.973-55.066,272-158.031C810.207,321.883,684.021,192.019,540,192.5Z"/>
  <path id="Forma_4_copia" data-name="Forma 4 copia" class="cls-2" d="M146,20.5l207,211s-104.451,9.01-162-57C129.9,104.417,146,20.5,146,20.5Zm-91,167,223,111s-69.363,39.4-141,3C59.993,262.37,55,187.5,55,187.5Zm1,174,191,18s-44.785,43.4-97,42C90.333,419.9,56,361.5,56,361.5Zm878-341-207,211s104.451,9.01,162-57C950.1,104.417,934,20.5,934,20.5Zm91,167-223,111s69.363,39.4,141,3C1020.01,262.37,1025,187.5,1025,187.5Zm-1,174-191,18s44.785,43.4,97,42C989.667,419.9,1024,361.5,1024,361.5Z"/>
</svg>
